<svg xmlns="http://www.w3.org/2000/svg" viewBox="0 0 170.57 156.96"><defs><style>.cls-1{opacity:0.3;}.cls-2{fill:#00e7ff;}.cls-3{fill:#ff1800;}</style></defs><title>bg_logo_30</title><g id="Layer_2" data-name="Layer 2"><g id="whirly"><g class="cls-1"><path class="cls-2" d="M68.93,0,0,39.24v78.48L68.93,157l68.93-39.24V39.24Zm51.87,108.25L68.51,138,21.91,111.48v-66L68.51,18.94l52.29,29.77Z"/><path class="cls-3" d="M101.64,0,32.7,39.24v78.48L101.64,157l68.93-39.24V39.24ZM49.76,108.25V48.71l52.29-29.77,42.49,24.19v70.7L102.06,138Z"/><polygon class="cls-2" points="120.81 79.4 120.81 108.25 75.05 134.29 75.05 146.91 86.59 146.91 137.87 117.72 137.87 79.4 120.81 79.4"/><path d="M85.29,0,16.35,39.24v78.48L85.29,157l68.93-39.24V39.24Zm52.29,108.25L85.29,138,33,108.25V48.71L85.29,18.94l52.29,29.77Z"/></g></g></g></svg>